A gut-wrenching, violent psychological crime drama from start to finish, this award-winning film by noted Japanese director Shohei Imamura is based on a true story. Iwao Enokizu (Ken Ogata) is a murderous sociopath who kills two money lenders in a gory opening scene. Then flashbacks are interspersed with Enokizu's flight across Japan as his miserable childhood and the development of his malevolent, anti-social behavior are portrayed. Vicious and sexually aggressive, Enokizu's rage simmers during an earlier stay in prison as he imagines his wife is bedding down his father. Once on the run from the police, his aberrant sexual life and violent nature are further revealed in a series of gripping events. 

   General
      Complete name : vengeance.is.mine.(shohei.imamura.1979).avi
      Format : AVI
      Format/Info : Audio Video Interleave
      File size : 1.37 GiB
      Duration : 2h 20mn
      Overall bit rate : 1 391 Kbps
      Writing application : VirtualDubMod 1.5.4.1 (build 2178/release)
      Writing library : VirtualDubMod build 2178/release
   Video #0
      ID : 0
      Format : MPEG-4 Visual
      Format profile : AdvancedSimple@L5
      Format settings, BVOP : Yes
      Format settings, QPel : No
      Format settings, GMC : No warppoints
      Format settings, Matrix : Custom
      Codec ID : XVID
      Codec ID/Hint : XviD
      Duration : 2h 20mn
      Bit rate : 1 193 Kbps
      Width : 608 pixels
      Height : 368 pixels
      Display aspect ratio : 1.652
      Frame rate : 23.976 fps
      Resolution : 24 bits
      Colorimetry : 4:2:0
      Scan type : Progressive
      Bits/(Pixel*Frame) : 0.222
      Stream size : 1.17 GiB (86%)
      Writing library : XviD 1.1.2 (UTC 2006-11-01)
   Audio #1
      ID : 1
      Format : AC-3
      Format/Info : Audio Coding 3
      Codec ID : 2000
      Duration : 2h 20mn
      Bit rate mode : Constant
      Bit rate : 192 Kbps
      Channel(s) : 1 channel
      Channel positions : C
      Sampling rate : 48.0 KHz
      Stream size : 193 MiB (14%)
      Alignment : Split accross interleaves
      Interleave, duration : 96 ms (2.30 video frames)
      Interleave, preload duration : 96 ms
      Language : Japanese
 
http://www.imdb.com/title/tt0079182/

Japanese audio; English subpack

Posted originally at KG by icedlemonade

Shohei Imamura - Fukushu suruwa wareniari aka Vengeance Is Mine (1979)